<svg width="20" height="20" viewBox="0 0 20 20" fill="none" xmlns="http://www.w3.org/2000/svg">
<path id="Mask" fill-rule="evenodd" clip-rule="evenodd" d="M14.2954 7.60549L9.72743 13.6055C9.53943 13.8525 9.24843 13.9985 8.93843 14.0005H8.93143C8.62443 14.0005 8.33443 13.8585 8.14443 13.6165L5.71243 10.5095C5.37243 10.0755 5.44843 9.44649 5.88343 9.10649C6.31743 8.76549 6.94743 8.84149 7.28743 9.27749L8.92043 11.3635L12.7044 6.39449C13.0384 5.95549 13.6654 5.86949 14.1064 6.20449C14.5454 6.53949 14.6304 7.16649 14.2954 7.60549ZM10.0004 0.000488281C4.47743 0.000488281 0.000427246 4.47749 0.000427246 10.0005C0.000427246 15.5225 4.47743 20.0005 10.0004 20.0005C15.5234 20.0005 20.0004 15.5225 20.0004 10.0005C20.0004 4.47749 15.5234 0.000488281 10.0004 0.000488281Z" fill="#EF8633"/>
</svg>
